<?xml version="1.0" encoding="iso-8859-1"?>
<!-- Uploaded to: SVG Repo, www.svgrepo.com, Generator: SVG Repo Mixer Tools -->
<svg height="800px" width="800px" version="1.1" id="Layer_1" xmlns="http://www.w3.org/2000/svg" xmlns:xlink="http://www.w3.org/1999/xlink" 
	 viewBox="0 0 496.158 496.158" xml:space="preserve">
<path style="fill:#48A1AF;" d="M0,248.085C0,111.063,111.069,0.003,248.075,0.003c137.013,0,248.083,111.061,248.083,248.082
	c0,137.002-111.07,248.07-248.083,248.07C111.069,496.155,0,385.087,0,248.085z"/>
<path style="fill:#FFFFFF;" d="M76.01,248.083c0-95.037,77.037-172.071,172.067-172.071c95.032,0,172.071,77.034,172.071,172.071
	c0,95.025-77.039,172.063-172.071,172.063C153.047,420.146,76.01,343.108,76.01,248.083z"/>
<path style="fill:#48A1AF;" d="M94.962,248.083c0-84.571,68.554-153.119,153.115-153.119c84.565,0,153.118,68.548,153.118,153.119
	c0,84.558-68.553,153.11-153.118,153.11C163.516,401.193,94.962,332.641,94.962,248.083z"/>
<g>
	<path style="fill:#FFFFFF;" d="M248.081,271.685c-13.039,0-23.608-10.569-23.608-23.606s10.569-23.607,23.608-23.607
		c13.035,0,23.605,10.57,23.605,23.607S261.116,271.685,248.081,271.685z"/>
	<path style="fill:#FFFFFF;" d="M248.079,255.774h-88.207c-4.25,0-7.695-3.445-7.695-7.695s3.445-7.695,7.695-7.695h88.207
		c4.25,0,7.695,3.445,7.695,7.695S252.329,255.774,248.079,255.774z"/>
	<path style="fill:#FFFFFF;" d="M248.079,255.774c-1.97,0-3.938-0.752-5.441-2.254c-3.005-3.006-3.005-7.878,0-10.883l62.372-62.371
		c3.007-3.004,7.878-3.003,10.883,0c3.005,3.006,3.005,7.879,0,10.884l-62.372,62.37
		C252.017,255.022,250.048,255.774,248.079,255.774z"/>
	<circle style="fill:#FFFFFF;" cx="248.079" cy="120.029" r="9.958"/>
	<circle style="fill:#FFFFFF;" cx="248.079" cy="376.129" r="9.958"/>
	<circle style="fill:#FFFFFF;" cx="376.129" cy="248.079" r="9.958"/>
	<circle style="fill:#FFFFFF;" cx="120.029" cy="248.079" r="9.958"/>
	<circle style="fill:#FFFFFF;" cx="338.619" cy="157.539" r="9.958"/>
	<circle style="fill:#FFFFFF;" cx="157.539" cy="338.619" r="9.958"/>
	<circle style="fill:#FFFFFF;" cx="338.619" cy="338.619" r="9.958"/>
	<circle style="fill:#FFFFFF;" cx="157.539" cy="157.539" r="9.958"/>
</g>
</svg>